P3
40 30
255
255 255 255 255 255 255 255 255 255 255 255 255 255 255 255 255 255 255 255 255 255 255 255 255 255 255 255 255 255 255 255 255 255 255 255 255 231 231 232 183 183 185 126 127 129 78 79 80 47 46 45 31 28 23 26 20 12 24 18 6 24 18 6 26 20 12 31 28 23 47 46 45 77 78 80 125 127 129 182 183 184 231 231 232 255 255 255 255 255 255 255 255 255 255 255 255 255 255 255 255 255 255 255 255 255 255 255 255 255 255 255 255 255 255 255 255 255 255 255 255 
255 255 255 255 255 255 255 255 255 255 255 255 255 255 255 255 255 255 255 255 255 255 255 255 255 255 255 245 245 245 189 190 191 109 110 112 55 53 50 50 40 22 81 59 19 123 88 27 158 113 35 183 131 41 197 142 45 204 147 47 204 147 47 197 142 45 183 131 41 158 113 35 123 88 27 81 59 19 50 40 22 55 53 50 109 110 112 189 190 191 245 245 245 255 255 255 255 255 255 255 255 255 255 255 255 255 255 255 255 255 255 255 255 255 255 255 255 255 255 255 
255 255 255 255 255 255 255 255 255 255 255 255 255 255 255 255 255 255 255 255 255 247 247 247 175 175 176 73 73 74 41 33 19 94 67 19 169 121 37 221 159 50 244 176 56 250 180 58 251 181 58 251 181 58 250 180 58 250 180 58 250 180 58 250 180 58 251 181 58 251 181 58 250 180 58 244 176 56 221 159 50 170 121 37 94 67 19 41 33 19 73 73 74 174 175 176 247 247 247 255 255 255 255 255 255 255 255 255 255 255 255 255 255 255 255 255 255 255 255 255 
255 255 255 255 255 255 255 255 255 255 255 255 255 255 255 255 255 255 208 208 208 85 86 87 36 28 15 115 82 24 207 149 47 246 177 57 251 181 58 249 179 57 247 178 57 247 178 57 247 178 57 247 178 57 247 178 57 247 178 57 247 178 57 247 178 57 247 178 57 247 178 57 247 178 57 247 178 57 249 179 57 251 181 58 246 177 57 207 149 47 115 82 24 36 28 15 85 86 87 208 208 208 255 255 255 255 255 255 255 255 255 255 255 255 255 255 255 255 255 255 
255 255 255 255 255 255 255 255 255 255 255 255 253 252 252 161 162 163 37 36 34 79 56 15 199 143 45 248 179 57 250 180 58 247 178 57 247 178 57 247 178 57 247 178 57 247 178 57 247 178 57 247 178 57 247 178 57 247 178 57 247 178 57 247 178 57 247 178 57 247 178 57 247 178 57 247 178 57 247 178 57 247 178 57 247 178 57 250 180 58 248 179 57 199 144 45 79 56 16 37 36 34 161 162 162 253 252 252 255 255 255 255 255 255 255 255 255 255 255 255 
255 255 255 255 255 255 255 255 255 249 249 249 133 134 134 24 20 14 127 90 27 237 171 55 250 180 58 247 178 57 247 178 57 247 178 57 247 178 57 247 178 57 247 178 57 247 178 57 247 178 57 247 178 57 247 178 57 247 178 57 247 178 57 247 178 57 247 178 57 247 178 57 247 178 57 247 178 57 247 178 57 247 178 57 247 178 57 247 178 57 247 178 57 250 180 58 237 171 55 129 92 28 25 21 15 133 133 134 249 249 249 255 255 255 255 255 255 255 255 255 
255 255 255 255 255 255 252 252 252 133 133 134 21 17 9 144 100 29 245 176 56 248 179 57 247 178 57 247 178 57 247 178 57 247 178 57 247 178 57 247 178 57 247 178 57 247 178 57 247 178 57 247 178 57 247 178 57 247 178 57 247 178 57 247 178 57 247 178 57 247 178 57 247 178 57 247 178 57 247 178 57 247 178 57 247 178 57 247 178 57 247 178 57 247 178 57 248 179 57 247 178 57 153 110 34 23 19 10 133 133 134 252 252 252 255 255 255 255 255 255 
255 255 255 255 255 255 163 164 164 19 17 13 132 91 25 239 170 53 248 179 57 247 178 57 247 178 57 247 178 57 247 178 57 247 178 57 247 178 57 247 178 57 247 178 57 247 178 57 247 178 57 247 178 57 247 178 57 247 178 57 247 178 57 247 178 57 247 178 57 247 178 57 247 178 57 247 178 57 247 178 57 247 178 57 247 178 57 247 178 57 247 178 57 247 178 57 247 178 57 248 178 57 248 179 57 145 104 32 20 18 13 163 164 164 255 255 255 255 255 255 
255 255 255 215 215 215 35 36 36 94 64 17 225 157 46 246 176 56 247 178 57 247 178 57 247 178 57 248 179 57 251 181 58 251 181 58 250 180 58 248 178 57 247 178 57 247 178 57 247 178 57 247 178 57 247 178 57 247 178 57 247 178 57 247 178 57 247 178 57 247 178 57 247 178 57 247 178 57 248 178 57 250 180 58 251 181 58 251 181 58 248 179 57 247 178 57 247 178 57 247 178 57 248 179 57 243 175 56 104 74 22 35 36 36 215 215 215 255 255 255 
253 253 253 106 106 107 35 24 5 197 136 39 235 166 50 247 178 57 247 178 57 247 178 57 248 179 57 236 170 55 182 131 42 153 110 34 183 131 40 239 172 55 248 179 57 247 178 57 247 178 57 247 178 57 247 178 57 247 178 57 247 178 57 247 178 57 247 178 57 247 178 57 247 178 57 248 179 57 239 172 55 186 134 43 153 110 34 179 128 39 236 170 54 248 179 57 247 178 57 247 178 57 247 178 57 249 180 58 218 157 50 39 27 7 105 106 107 253 253 253 
204 204 204 26 26 26 123 85 23 227 157 46 238 169 52 247 178 57 247 178 57 248 179 57 235 169 54 97 70 22 7 5 1 25 25 25 54 51 46 111 80 27 239 172 55 248 178 57 247 178 57 247 178 57 247 178 57 247 178 57 247 178 57 247 178 57 247 178 57 247 178 57 248 178 57 239 173 55 109 79 25 10 7 1 22 22 22 54 51 47 100 73 25 235 169 54 248 179 57 247 178 57 247 178 57 247 178 57 250 180 58 136 97 30 26 26 26 204 204 204 
122 123 124 25 18 5 191 132 38 227 157 46 240 171 53 247 178 57 247 178 57 250 180 58 198 143 46 13 9 3 0 0 0 84 84 84 137 138 139 28 22 12 209 151 48 249 180 58 247 178 57 247 178 57 247 178 57 247 178 57 247 178 57 247 178 57 247 178 57 247 178 57 249 180 58 210 151 48 21 15 5 0 0 0 74 74 74 144 145 146 24 20 14 197 142 45 250 180 58 247 178 57 247 178 57 247 178 57 249 180 58 211 152 49 28 20 7 122 123 124 
53 54 56 65 44 11 219 152 44 225 156 45 241 172 54 247 178 57 247 178 57 248 179 57 226 163 52 65 47 15 0 0 0 0 2 4 7 7 8 77 55 18 233 168 54 248 179 57 247 178 57 247 178 57 247 178 57 247 178 57 247 178 57 247 178 57 247 178 57 247 178 57 248 179 57 233 168 54 77 55 18 0 0 0 0 1 3 7 7 9 65 47 15 226 163 52 248 179 57 247 178 57 247 178 57 247 178 57 247 178 57 242 174 56 71 51 15 52 54 56 
14 16 18 102 70 20 226 157 45 224 155 45 240 171 53 247 178 57 247 178 57 247 178 57 248 179 57 218 157 50 138 100 32 107 77 24 143 103 33 223 161 51 248 179 57 247 178 57 247 178 57 247 178 57 247 178 57 247 178 57 247 178 57 247 178 57 247 178 57 247 178 57 247 178 57 248 179 57 223 161 51 144 103 33 107 77 25 138 99 31 218 157 50 248 179 57 247 178 57 247 178 57 247 178 57 247 178 57 247 178 57 250 180 58 112 81 25 14 15 18 
0 1 2 121 84 24 228 157 46 224 155 45 237 168 52 247 178 57 247 178 57 247 178 57 247 178 57 249 179 57 250 181 58 249 180 57 251 181 58 248 179 57 247 178 57 247 178 57 247 178 57 247 178 57 247 178 57 247 178 57 247 178 57 247 178 57 247 178 57 247 178 57 247 178 57 247 178 57 248 179 57 251 181 58 249 180 57 250 181 58 249 179 57 247 178 57 247 178 57 247 178 57 247 178 57 247 178 57 247 178 57 251 181 58 134 96 31 0 1 2 
0 1 2 121 84 24 228 158 46 224 155 45 232 163 49 247 178 57 247 178 57 247 178 57 247 178 57 247 178 57 247 178 57 247 178 57 247 178 57 247 178 57 247 178 57 247 178 57 247 178 57 247 178 57 247 178 57 247 178 57 247 178 57 247 178 57 247 178 57 247 178 57 247 178 57 247 178 57 247 178 57 247 178 57 247 178 57 247 178 57 247 178 57 247 178 57 247 178 57 247 178 57 247 178 57 247 178 57 247 178 57 251 181 58 134 96 31 0 1 2 
15 16 18 102 70 20 226 157 45 224 155 45 227 158 46 244 175 55 247 178 57 247 178 57 247 178 57 241 174 56 246 178 57 249 179 57 247 178 57 247 178 57 247 178 57 247 178 57 247 178 57 247 178 57 247 178 57 247 178 57 247 178 57 247 178 57 247 178 57 247 178 57 247 178 57 247 178 57 247 178 57 247 178 57 249 179 57 246 178 57 241 174 56 247 178 57 247 178 57 247 178 57 247 178 57 247 178 57 247 178 57 250 180 58 112 81 25 14 15 18 
53 54 56 65 44 11 219 152 44 224 155 45 224 155 45 236 167 51 247 178 57 248 178 57 239 172 55 108 78 25 116 83 27 224 162 52 251 181 58 248 179 57 247 178 57 247 178 57 247 178 57 247 178 57 247 178 57 247 178 57 247 178 57 247 178 57 247 178 57 247 178 57 247 178 57 247 178 57 248 179 57 251 181 58 224 162 52 116 84 27 108 78 25 239 172 55 248 178 57 247 178 57 247 178 57 247 178 57 247 178 57 242 174 56 71 51 15 53 54 56 
122 123 124 25 18 5 191 132 38 226 156 45 224 155 45 227 158 47 243 174 55 247 178 57 246 177 57 172 124 40 51 37 12 52 38 12 153 110 35 227 163 52 249 180 58 251 181 58 249 179 57 248 179 57 247 178 57 247 178 57 247 178 57 247 178 57 248 179 57 249 179 57 251 181 58 249 180 58 227 163 52 153 110 35 53 38 12 51 37 12 172 124 40 246 177 57 247 178 57 247 178 57 247 178 57 247 178 57 249 180 58 211 152 49 28 20 7 122 123 124 
204 204 204 26 26 26 123 85 23 227 157 46 224 155 45 224 155 45 232 163 49 246 177 56 247 178 57 250 180 58 223 161 52 131 95 30 49 35 11 52 37 12 113 82 26 175 126 40 214 154 49 234 169 54 243 175 56 245 177 57 245 177 57 243 175 56 234 169 54 214 155 49 175 126 40 113 82 26 52 37 12 49 35 11 131 95 30 223 161 52 250 180 58 247 178 57 247 178 57 247 178 57 247 178 57 247 178 57 250 180 58 136 97 30 26 26 26 204 204 205 
253 253 253 106 106 107 35 24 5 197 137 40 226 156 45 224 155 45 224 155 45 235 166 50 246 177 57 247 178 57 249 179 57 249 180 58 224 161 52 161 116 37 93 67 21 54 39 12 48 35 11 60 44 14 75 54 17 85 61 20 85 61 20 75 54 17 60 44 14 48 35 11 54 39 12 93 67 21 161 116 37 224 161 52 249 180 58 249 179 57 247 178 57 247 178 57 247 178 57 247 178 57 247 178 57 249 180 58 218 157 50 39 27 7 105 106 107 253 253 253 
255 255 255 215 215 215 35 36 36 94 64 17 221 153 44 225 155 45 224 155 45 224 155 45 235 166 51 246 177 56 247 178 57 247 178 57 248 179 57 251 181 58 246 177 57 228 165 53 200 144 46 172 124 39 152 110 35 142 102 33 142 102 33 152 110 35 172 124 39 200 143 46 228 165 53 246 177 57 251 181 58 248 179 57 247 178 57 247 178 57 247 178 57 247 178 57 247 178 57 247 178 57 248 179 57 243 175 56 103 74 22 35 36 36 215 215 215 255 255 255 
255 255 255 255 255 255 164 164 164 19 17 13 132 91 25 225 156 45 225 155 45 224 155 45 224 155 45 232 163 49 244 175 55 247 178 57 247 178 57 247 178 57 247 178 57 247 178 57 236 166 51 234 164 49 236 166 50 237 167 51 237 167 51 236 166 50 234 164 49 236 166 51 247 178 57 247 178 57 247 178 57 247 178 57 247 178 57 247 178 57 247 178 57 247 178 57 247 178 57 248 178 57 248 179 57 145 104 32 20 18 13 164 164 164 255 255 255 255 255 255 
255 255 255 255 255 255 252 252 252 133 134 134 22 17 9 139 95 27 224 155 45 225 156 45 224 155 45 224 155 45 228 159 47 239 170 53 246 177 57 247 178 57 247 178 57 247 178 57 243 174 55 239 170 53 237 168 52 236 167 51 236 167 51 237 168 52 239 170 53 243 174 55 247 178 57 247 178 57 247 178 57 247 178 57 247 178 57 247 178 57 247 178 57 247 178 57 248 179 57 247 178 57 153 110 34 23 19 10 133 133 134 252 252 252 255 255 255 255 255 255 
255 255 255 255 255 255 255 255 255 249 249 249 133 134 135 24 20 14 117 80 21 215 148 43 227 157 46 224 155 45 224 155 45 225 156 45 231 162 49 240 171 53 246 177 56 247 178 57 248 179 57 247 178 57 247 178 57 247 178 57 247 178 57 247 178 57 247 178 57 247 178 57 247 178 57 247 178 57 247 178 57 247 178 57 247 178 57 247 178 57 247 178 57 250 180 58 236 170 54 129 92 28 25 21 15 133 134 134 250 249 249 255 255 255 255 255 255 255 255 255 
255 255 255 255 255 255 255 255 255 255 255 255 253 253 252 162 162 163 36 35 34 71 48 11 181 125 36 225 156 45 226 157 45 224 155 45 224 155 45 225 156 45 229 160 48 236 167 51 242 173 54 245 176 56 247 178 57 247 178 57 247 178 57 247 178 57 247 178 57 247 178 57 247 178 57 247 178 57 247 178 57 247 178 57 247 178 57 248 178 57 243 174 55 193 137 42 77 54 14 37 36 34 161 162 163 253 253 252 255 255 255 255 255 255 255 255 255 255 255 255 
255 255 255 255 255 255 255 255 255 255 255 255 255 255 255 255 255 255 208 208 209 86 86 88 33 26 14 104 71 18 188 130 37 223 154 45 228 157 46 225 156 45 224 155 45 224 155 45 225 156 46 228 159 47 232 163 49 236 167 51 239 170 53 240 171 54 241 172 54 242 173 54 241 172 54 241 172 54 240 171 53 239 169 52 231 163 49 192 134 39 105 72 18 33 26 14 85 86 88 208 208 208 255 255 255 255 255 255 255 255 255 255 255 255 255 255 255 255 255 255 
255 255 255 255 255 255 255 255 255 255 255 255 255 255 255 255 255 255 255 255 255 247 247 247 175 175 176 73 73 74 38 30 18 85 58 14 153 105 28 200 138 40 221 153 44 227 157 46 228 158 46 227 157 46 226 156 45 226 156 45 226 157 46 227 157 46 228 158 46 229 159 46 228 158 46 222 153 45 200 138 40 153 105 28 85 57 14 38 30 17 73 73 74 175 175 176 247 247 247 255 255 255 255 255 255 255 255 255 255 255 255 255 255 255 255 255 255 255 255 255 
255 255 255 255 255 255 255 255 255 255 255 255 255 255 255 255 255 255 255 255 255 255 255 255 255 255 255 245 245 245 190 190 191 109 111 112 54 53 50 47 37 20 74 51 15 111 76 20 143 98 27 165 114 32 179 124 36 185 128 37 185 128 37 179 124 36 165 114 32 143 98 27 111 76 20 74 51 15 47 37 20 54 53 50 109 110 112 189 190 191 245 245 245 255 255 255 255 255 255 255 255 255 255 255 255 255 255 255 255 255 255 255 255 255 255 255 255 255 255 255 
255 255 255 255 255 255 255 255 255 255 255 255 255 255 255 255 255 255 255 255 255 255 255 255 255 255 255 255 255 255 255 255 255 255 255 255 231 232 232 183 184 185 126 128 130 78 79 81 47 46 45 30 28 23 24 19 11 22 16 5 22 16 5 24 19 11 30 28 23 46 46 45 78 79 80 126 127 129 183 184 185 231 231 232 255 255 255 255 255 255 255 255 255 255 255 255 255 255 255 255 255 255 255 255 255 255 255 255 255 255 255 255 255 255 255 255 255 255 255 255 
