P3
24 24
255
0 0 0 0 0 0 0 0 0 0 0 0 0 0 0 0 0 0 0 0 0 0 0 0 0 0 0 7 7 6 24 24 20 35 35 28 35 35 28 24 24 20 7 7 6 0 0 0 0 0 0 0 0 0 0 0 0 0 0 0 0 0 0 0 0 0 0 0 0 0 0 0 
0 0 0 0 0 0 0 0 0 0 0 0 0 0 0 0 0 0 1 1 1 45 44 36 113 111 91 173 169 138 207 203 163 222 216 172 222 216 172 207 203 163 173 169 138 113 111 91 45 44 36 1 1 1 0 0 0 0 0 0 0 0 0 0 0 0 0 0 0 0 0 0 
0 0 0 0 0 0 0 0 0 0 0 0 0 0 0 30 29 24 133 130 106 225 220 175 255 247 177 255 246 148 255 241 124 255 239 112 255 239 112 255 241 124 255 246 148 255 247 176 225 220 175 133 130 106 30 29 24 0 0 0 0 0 0 0 0 0 0 0 0 0 0 0 
0 0 0 0 0 0 0 0 0 0 0 0 55 54 44 195 190 154 255 247 178 255 241 123 253 234 84 253 233 73 253 233 72 253 233 72 253 233 72 253 233 72 253 233 73 253 234 84 255 241 123 255 247 178 195 190 154 56 54 44 0 0 0 0 0 0 0 0 0 0 0 0 
0 0 0 0 0 0 0 0 0 55 54 44 213 208 167 255 247 160 253 235 90 253 233 72 253 233 73 255 235 75 254 234 74 253 233 74 253 233 74 254 234 74 255 235 75 253 233 73 253 233 72 253 235 90 255 247 160 213 208 167 56 54 44 0 0 0 0 0 0 0 0 0 
0 0 0 0 0 0 30 29 24 195 190 154 255 247 160 253 234 83 253 233 73 253 233 74 250 230 73 211 195 62 239 220 70 254 234 74 254 234 74 235 217 69 213 197 62 252 232 74 253 233 74 253 233 73 253 234 83 255 247 160 195 190 154 30 29 24 0 0 0 0 0 0 
0 0 0 1 1 1 133 130 106 255 247 178 253 235 90 253 233 73 253 233 74 255 236 75 204 188 60 31 29 9 138 127 40 255 235 75 254 234 74 121 112 36 38 35 11 216 199 63 255 235 75 253 233 74 253 233 73 253 235 90 255 247 178 133 130 106 1 1 1 0 0 0 
0 0 0 45 44 36 225 220 175 255 241 123 253 233 72 253 233 74 253 233 74 255 237 75 152 140 45 0 0 0 76 70 22 249 229 73 243 224 71 60 55 18 0 0 0 170 156 50 255 237 75 253 233 74 253 233 74 253 233 72 255 241 123 225 220 175 45 44 36 0 0 0 
0 0 0 113 111 91 255 247 176 253 234 84 253 233 73 253 233 74 253 233 74 255 237 75 132 122 39 0 0 0 59 54 17 243 224 71 235 216 69 45 41 13 0 0 0 150 139 44 255 237 75 253 233 74 253 233 74 253 233 73 253 234 84 255 247 177 113 111 91 0 0 0 
7 7 6 173 169 138 255 246 148 253 233 73 253 233 74 253 233 74 253 233 74 255 237 75 136 125 40 0 0 0 62 57 18 244 225 71 237 218 69 48 44 14 0 0 0 154 142 45 255 237 75 253 233 74 253 233 74 253 233 74 253 233 73 255 246 148 173 169 138 7 7 6 
24 24 20 207 203 163 255 241 124 253 233 72 253 233 74 253 233 74 253 233 74 255 237 75 165 152 48 0 0 0 88 81 26 251 232 74 247 227 72 71 66 21 0 0 0 181 167 53 255 237 75 253 233 74 254 234 74 253 233 74 253 233 72 255 241 124 207 202 163 24 24 20 
35 35 28 222 216 172 255 239 112 253 233 72 254 234 74 249 230 73 247 228 72 255 235 75 224 206 65 81 75 24 174 160 51 255 235 75 255 235 75 160 147 47 88 81 26 232 214 68 254 234 74 251 231 73 231 213 68 251 231 73 253 233 72 255 239 113 221 216 172 35 35 28 
35 35 28 222 216 172 255 240 113 247 227 70 245 226 72 176 162 51 185 170 54 255 236 75 253 233 74 245 226 72 251 232 74 253 233 74 253 233 74 251 231 73 246 226 72 254 234 74 253 233 74 245 225 72 125 116 37 228 210 67 252 231 72 255 239 113 221 216 172 35 35 28 
24 24 20 207 203 163 255 243 124 215 198 61 116 107 34 57 53 17 174 160 51 255 237 75 253 233 74 254 233 74 253 233 74 253 233 74 253 233 74 253 233 74 254 233 74 253 233 74 254 234 74 239 220 70 74 68 22 96 88 28 180 166 51 255 243 124 207 202 163 24 24 20 
7 7 6 173 169 138 255 246 148 250 231 72 230 212 67 142 131 41 77 70 22 232 214 68 255 235 75 253 233 74 253 233 74 253 233 74 253 233 74 253 233 74 253 233 74 254 234 74 252 232 74 130 119 38 85 78 25 208 192 61 237 218 68 255 246 148 173 169 138 7 7 6 
0 0 0 113 111 91 255 247 176 253 234 84 255 235 74 246 227 72 104 96 30 101 93 29 240 221 70 255 235 75 253 233 74 253 233 74 253 233 74 253 233 74 254 234 74 253 233 74 149 137 44 65 60 19 216 199 63 255 237 75 254 235 84 255 247 177 113 111 91 0 0 0 
0 0 0 45 44 36 225 220 175 255 241 123 253 233 72 255 235 75 234 215 68 92 84 27 95 87 28 222 204 65 255 236 75 255 236 75 255 236 75 255 237 75 238 219 70 130 120 38 65 59 19 202 186 59 255 236 75 253 233 72 255 241 123 225 220 175 45 44 36 0 0 0 
0 0 0 1 1 1 133 130 106 255 247 178 253 235 90 253 233 73 255 235 75 236 217 69 118 108 34 63 58 19 133 123 39 187 173 55 193 177 56 150 139 44 75 69 22 89 82 26 214 197 63 255 236 75 253 233 73 253 235 90 255 247 178 133 130 106 1 1 1 0 0 0 
0 0 0 0 0 0 30 29 24 195 190 154 255 247 160 253 234 83 253 233 73 254 234 74 251 231 73 193 177 56 113 104 33 79 73 23 77 71 22 100 92 29 172 158 50 243 224 71 255 235 75 253 233 73 253 234 83 255 247 160 195 190 154 30 29 24 0 0 0 0 0 0 
0 0 0 0 0 0 0 0 0 55 54 44 213 208 167 255 247 160 253 235 90 253 233 72 253 233 73 255 236 75 254 234 74 245 226 72 244 224 71 252 233 74 255 236 75 254 234 74 253 233 72 253 235 90 255 247 160 213 208 167 55 54 44 0 0 0 0 0 0 0 0 0 
0 0 0 0 0 0 0 0 0 0 0 0 55 54 44 195 190 154 255 247 178 255 241 123 253 234 84 253 233 73 253 233 72 253 233 72 254 233 72 253 233 72 253 233 73 253 234 84 255 241 123 255 247 178 195 190 154 55 54 44 0 0 0 0 0 0 0 0 0 0 0 0 
0 0 0 0 0 0 0 0 0 0 0 0 0 0 0 30 29 24 133 130 106 225 220 175 255 247 177 255 246 148 255 241 124 255 239 113 255 239 113 255 241 124 255 246 148 255 247 176 225 220 175 133 130 106 30 29 24 0 0 0 0 0 0 0 0 0 0 0 0 0 0 0 
0 0 0 0 0 0 0 0 0 0 0 0 0 0 0 0 0 0 1 1 1 45 44 36 113 111 91 173 169 138 207 202 163 221 216 172 221 216 172 207 202 163 173 169 138 113 111 91 45 44 36 1 1 1 0 0 0 0 0 0 0 0 0 0 0 0 0 0 0 0 0 0 
0 0 0 0 0 0 0 0 0 0 0 0 0 0 0 0 0 0 0 0 0 0 0 0 0 0 0 7 7 6 24 24 20 35 35 28 35 35 28 24 24 20 7 7 6 0 0 0 0 0 0 0 0 0 0 0 0 0 0 0 0 0 0 0 0 0 0 0 0 0 0 0 
