P2
40 30
255
255 255 255 255 255 255 255 255 255 255 255 255 231 183 127 79 46 29 21 18 18 21 29 46 78 127 183 231 255 255 255 255 255 255 255 255 255 255 255 255 
255 255 255 255 255 255 255 255 255 245 190 110 53 41 61 91 117 136 147 152 152 147 136 117 91 61 41 53 110 190 245 255 255 255 255 255 255 255 255 255 
255 255 255 255 255 255 255 247 175 73 33 69 125 164 181 186 187 187 186 186 186 186 187 187 186 181 164 126 69 33 73 175 247 255 255 255 255 255 255 255 
255 255 255 255 255 255 208 86 29 85 154 183 187 185 184 184 184 184 184 184 184 184 184 184 184 184 185 187 183 154 85 29 86 208 255 255 255 255 255 255 
255 255 255 255 252 162 36 58 148 185 186 184 184 184 184 184 184 184 184 184 184 184 184 184 184 184 184 184 184 186 185 148 58 36 162 252 255 255 255 255 
255 255 255 249 134 21 94 176 186 184 184 184 184 184 184 184 184 184 184 184 184 184 184 184 184 184 184 184 184 184 184 186 176 96 22 133 249 255 255 255 
255 255 252 133 17 104 182 185 184 184 184 184 184 184 184 184 184 184 184 184 184 184 184 184 184 184 184 184 184 184 184 184 185 184 114 19 133 252 255 255 
255 255 164 17 95 176 185 184 184 184 184 184 184 184 184 184 184 184 184 184 184 184 184 184 184 184 184 184 184 184 184 184 184 184 185 108 18 164 255 255 
255 215 36 67 163 182 184 184 184 185 187 187 186 184 184 184 184 184 184 184 184 184 184 184 184 184 184 186 187 187 185 184 184 184 185 181 76 36 215 255 
253 106 25 142 172 184 184 184 185 176 136 114 136 178 185 184 184 184 184 184 184 184 184 184 184 185 178 139 114 133 176 185 184 184 184 186 162 29 106 253 
204 26 88 164 175 184 184 185 175 72 5 25 51 83 178 184 184 184 184 184 184 184 184 184 184 178 81 7 22 52 75 175 185 184 184 184 186 101 26 204 
123 18 138 164 177 184 184 186 147 9 0 84 138 23 156 186 184 184 184 184 184 184 184 184 186 156 15 0 74 145 21 147 186 184 184 184 186 157 21 123 
54 46 158 163 178 184 184 185 168 48 0 1 7 57 173 185 184 184 184 184 184 184 184 184 185 173 57 0 1 7 49 168 185 184 184 184 184 180 53 54 
16 73 163 162 177 184 184 184 185 162 103 80 106 166 185 184 184 184 184 184 184 184 184 184 184 185 166 107 80 103 162 185 184 184 184 184 184 186 83 15 
1 88 164 162 174 184 184 184 184 185 187 186 187 185 184 184 184 184 184 184 184 184 184 184 184 184 185 187 186 187 185 184 184 184 184 184 184 187 100 1 
1 88 164 161 169 184 184 184 184 184 184 184 184 184 184 184 184 184 184 184 184 184 184 184 184 184 184 184 184 184 184 184 184 184 184 184 184 187 99 1 
16 73 163 162 164 181 184 184 184 180 184 185 184 184 184 184 184 184 184 184 184 184 184 184 184 184 184 184 185 184 180 184 184 184 184 184 184 186 83 15 
54 46 158 162 162 173 184 184 178 81 86 167 187 185 184 184 184 184 184 184 184 184 184 184 184 184 185 187 167 86 81 178 184 184 184 184 184 180 53 54 
123 18 138 163 162 165 180 184 183 128 38 39 114 169 186 187 185 185 184 184 184 184 185 185 187 186 169 114 39 38 128 183 184 184 184 184 186 157 21 123 
204 26 88 164 162 161 169 183 184 186 166 98 36 38 84 130 160 174 181 183 183 181 174 160 130 84 39 36 98 166 186 184 184 184 184 184 186 100 26 204 
253 106 25 143 163 162 162 172 183 184 185 186 167 120 69 40 36 45 56 63 63 56 45 36 40 69 120 167 186 185 184 184 184 184 184 186 162 28 106 253 
255 215 36 67 159 162 162 162 172 183 184 184 185 187 183 170 148 128 113 106 106 113 128 148 170 183 187 185 184 184 184 184 184 184 185 181 76 36 215 255 
255 255 164 17 95 162 162 162 162 170 181 184 184 184 184 184 173 170 173 174 174 173 170 173 184 184 184 184 184 184 184 184 184 184 185 108 18 164 255 255 
255 255 252 134 17 100 161 163 162 162 166 176 183 184 184 184 180 176 174 173 173 174 176 180 184 184 184 184 184 184 184 184 185 184 113 19 133 252 255 255 
255 255 255 249 134 21 84 155 164 162 161 162 168 177 183 184 184 184 184 184 184 184 184 184 184 184 184 184 184 184 184 186 176 95 22 133 249 255 255 255 
255 255 255 255 253 162 35 50 130 162 163 162 161 162 167 173 179 182 184 184 184 184 184 184 184 184 184 184 184 184 180 142 56 36 162 253 255 255 255 255 
255 255 255 255 255 255 208 86 27 74 135 161 164 163 162 162 163 166 170 173 176 178 179 179 179 178 177 176 169 140 75 26 86 208 255 255 255 255 255 255 
255 255 255 255 255 255 255 247 175 73 31 60 110 144 159 164 164 164 163 163 164 164 165 166 165 160 144 110 60 31 73 175 247 255 255 255 255 255 255 255 
255 255 255 255 255 255 255 255 255 245 190 110 53 38 53 79 103 119 129 134 134 129 119 103 79 53 38 53 110 190 245 255 255 255 255 255 255 255 255 255 
255 255 255 255 255 255 255 255 255 255 255 255 232 184 128 79 46 28 19 16 16 19 28 46 79 127 183 231 255 255 255 255 255 255 255 255 255 255 255 255 
