P2
24 24
255
0 0 0 0 0 0 0 0 0 7 24 34 34 24 7 0 0 0 0 0 0 0 0 0 
0 0 0 0 0 0 1 43 110 168 201 214 214 201 168 110 43 1 0 0 0 0 0 0 
0 0 0 0 0 29 129 218 243 241 236 234 234 236 241 243 218 129 29 0 0 0 0 0 
0 0 0 0 54 189 244 235 227 226 225 225 225 225 226 227 235 244 189 54 0 0 0 0 
0 0 0 54 206 243 229 225 226 228 227 226 226 227 228 226 225 229 243 206 54 0 0 0 
0 0 29 189 243 227 226 226 223 189 213 227 227 210 190 225 226 226 227 243 189 29 0 0 
0 1 129 244 229 226 226 228 182 28 123 228 227 108 34 192 228 226 226 229 244 129 1 0 
0 43 218 235 225 226 226 230 136 0 68 222 217 54 0 151 230 226 226 225 235 218 43 0 
0 110 243 227 226 226 226 229 118 0 53 217 210 40 0 134 230 226 226 226 227 243 110 0 
7 168 241 226 226 226 226 229 121 0 55 218 211 42 0 137 230 226 226 226 226 241 168 7 
24 201 236 225 226 226 226 230 147 0 79 224 220 64 0 162 229 226 227 226 225 236 201 24 
34 214 234 226 226 222 221 228 200 72 155 228 228 143 78 207 227 224 206 224 226 234 214 34 
34 214 234 220 219 157 165 229 226 219 224 226 226 224 219 226 226 218 112 204 224 234 214 34 
24 201 238 192 104 51 155 230 226 226 226 226 226 226 226 226 227 213 66 85 161 237 201 24 
7 168 241 223 205 127 68 207 228 226 226 226 226 226 226 226 225 116 76 186 211 241 168 7 
0 110 243 228 228 219 93 90 215 228 226 226 226 226 227 225 133 58 192 229 228 243 110 0 
0 43 218 235 225 227 208 82 85 198 229 229 229 230 212 116 58 181 228 225 235 218 43 0 
0 1 129 244 229 225 228 210 105 56 119 167 172 134 67 79 191 228 226 229 244 129 1 0 
0 0 29 189 243 227 225 227 224 172 101 70 68 90 153 217 228 226 227 243 189 29 0 0 
0 0 0 54 206 243 229 225 226 229 227 219 217 225 229 226 225 229 243 206 54 0 0 0 
0 0 0 0 54 189 244 235 227 226 225 226 226 226 226 227 235 244 189 54 0 0 0 0 
0 0 0 0 0 29 129 218 243 241 236 234 234 236 241 243 218 129 29 0 0 0 0 0 
0 0 0 0 0 0 1 43 110 167 201 214 214 201 168 110 43 1 0 0 0 0 0 0 
0 0 0 0 0 0 0 0 0 7 24 34 34 24 7 0 0 0 0 0 0 0 0 0 
